<svg width="122" height="23" viewBox="0 0 122 23" fill="none" xmlns="http://www.w3.org/2000/svg">
<path d="M42.7217 16.9155V18.9722H35.9102V16.9155H42.7217ZM36.7715 6.17529V18.9722H34.1348V6.17529H36.7715ZM41.834 11.3872V13.3911H35.9102V11.3872H41.834ZM42.7129 6.17529V8.24072H35.9102V6.17529H42.7129ZM46.8965 6.17529V18.9722H44.2598V6.17529H46.8965ZM51.9941 11.6421V13.6987H46.1758V11.6421H51.9941ZM52.6094 6.17529V8.24072H46.1758V6.17529H52.6094ZM56.7754 6.17529V18.9722H54.1387V6.17529H56.7754ZM61.873 11.6421V13.6987H56.0547V11.6421H61.873ZM62.4883 6.17529V8.24072H56.0547V6.17529H62.4883ZM72.6045 16.9155V18.9722H65.793V16.9155H72.6045ZM66.6543 6.17529V18.9722H64.0176V6.17529H66.6543ZM71.7168 11.3872V13.3911H65.793V11.3872H71.7168ZM72.5957 6.17529V8.24072H65.793V6.17529H72.5957ZM81.5605 14.7271H84.1885C84.1357 15.5884 83.8984 16.353 83.4766 17.021C83.0605 17.689 82.4775 18.2104 81.7275 18.5854C80.9834 18.9604 80.0869 19.1479 79.0381 19.1479C78.2178 19.1479 77.4824 19.0073 76.832 18.7261C76.1816 18.439 75.625 18.0288 75.1621 17.4956C74.7051 16.9624 74.3564 16.3179 74.1162 15.562C73.876 14.8062 73.7559 13.9595 73.7559 13.022V12.1343C73.7559 11.1968 73.8789 10.3501 74.125 9.59424C74.377 8.83252 74.7344 8.18506 75.1973 7.65186C75.666 7.11865 76.2256 6.7085 76.876 6.42139C77.5264 6.13428 78.2529 5.99072 79.0557 5.99072C80.1221 5.99072 81.0215 6.18408 81.7539 6.5708C82.4922 6.95752 83.0635 7.49072 83.4678 8.17041C83.8779 8.8501 84.124 9.62354 84.2061 10.4907H81.5693C81.54 9.9751 81.4375 9.53857 81.2617 9.18115C81.0859 8.81787 80.8193 8.54541 80.4619 8.36377C80.1104 8.17627 79.6416 8.08252 79.0557 8.08252C78.6162 8.08252 78.2324 8.16455 77.9043 8.32861C77.5762 8.49268 77.3008 8.7417 77.0781 9.07568C76.8555 9.40967 76.6885 9.83154 76.5771 10.3413C76.4717 10.8452 76.4189 11.437 76.4189 12.1167V13.022C76.4189 13.6841 76.4688 14.2671 76.5684 14.771C76.668 15.269 76.8203 15.6909 77.0254 16.0366C77.2363 16.3765 77.5059 16.6343 77.834 16.8101C78.168 16.98 78.5693 17.0649 79.0381 17.0649C79.5889 17.0649 80.043 16.9771 80.4004 16.8013C80.7578 16.6255 81.0303 16.3647 81.2178 16.019C81.4111 15.6733 81.5254 15.2427 81.5605 14.7271ZM91.3779 6.17529V18.9722H88.75V6.17529H91.3779ZM95.3154 6.17529V8.24072H84.874V6.17529H95.3154ZM94.6211 17.7505C94.6211 17.3755 94.75 17.062 95.0078 16.8101C95.2715 16.5581 95.6201 16.4321 96.0537 16.4321C96.4873 16.4321 96.833 16.5581 97.0908 16.8101C97.3545 17.062 97.4863 17.3755 97.4863 17.7505C97.4863 18.1255 97.3545 18.439 97.0908 18.6909C96.833 18.9429 96.4873 19.0688 96.0537 19.0688C95.6201 19.0688 95.2715 18.9429 95.0078 18.6909C94.75 18.439 94.6211 18.1255 94.6211 17.7505ZM106.943 6.17529H109.571V14.6304C109.571 15.6147 109.36 16.4438 108.938 17.1177C108.522 17.7915 107.945 18.2983 107.207 18.6382C106.475 18.978 105.631 19.1479 104.676 19.1479C103.721 19.1479 102.871 18.978 102.127 18.6382C101.389 18.2983 100.809 17.7915 100.387 17.1177C99.9707 16.4438 99.7627 15.6147 99.7627 14.6304V6.17529H102.399V14.6304C102.399 15.2046 102.49 15.6733 102.672 16.0366C102.854 16.3999 103.114 16.6665 103.454 16.8364C103.8 17.0063 104.207 17.0913 104.676 17.0913C105.156 17.0913 105.563 17.0063 105.897 16.8364C106.237 16.6665 106.495 16.3999 106.671 16.0366C106.853 15.6733 106.943 15.2046 106.943 14.6304V6.17529ZM120.997 16.9155V18.9722H111.927V16.9155H120.997ZM120.865 7.64307L113.096 18.9722H111.241V17.4604L119.072 6.17529H120.865V7.64307ZM119.96 6.17529V8.24072H111.25V6.17529H119.96Z" fill="#0768B5"/>
<path d="M19.8755 17.5984C18.6878 18.4716 17.2872 18.9933 15.828 19.1061C14.3687 19.2188 12.9073 18.9183 11.6044 18.2376C10.3016 17.5569 9.20788 16.5223 8.4436 15.2477C7.67932 13.9732 7.2741 12.508 7.27253 11.0134C7.27187 10.6977 7.28955 10.3822 7.32547 10.0687C11.4828 12.4676 15.2333 12.4591 15.6485 12.4505H26V11.0134C26.0032 8.59107 25.2232 6.2354 23.7813 4.3121C22.3393 2.38879 20.316 1.00545 18.0253 0.376821C15.7347 -0.251811 13.305 -0.0905685 11.1133 0.835518C8.92158 1.7616 7.09054 3.40073 5.9044 5.49844C4.5319 4.22665 3.35572 2.75008 2.41582 1.11888L0 2.59012C1.24821 4.77025 2.86853 6.70455 4.78427 8.30146C4.23578 10.5167 4.37629 12.8514 5.18629 14.9814C5.99628 17.1113 7.43556 18.9309 9.30428 20.1874C11.173 21.4438 13.3784 22.0749 15.6143 21.9929C17.8503 21.9109 20.0057 21.12 21.7814 19.7298C21.3374 19.5272 20.9391 19.2334 20.6112 18.8667C20.2833 18.5 20.0329 18.0683 19.8755 17.5984ZM15.2277 2.87753C17.0933 2.87964 18.899 3.5501 20.3303 4.77212C21.7615 5.99413 22.7277 7.69024 23.0603 9.56496H15.5927C15.3726 9.56496 11.9286 9.6048 8.17811 7.23432C8.8527 5.92084 9.86603 4.82067 11.1085 4.05278C12.351 3.28489 13.7754 2.8785 15.2277 2.87753Z" fill="url(#paint0_linear_402_1158)"/>
<defs>
<linearGradient id="paint0_linear_402_1158" x1="0" y1="11.0049" x2="26" y2="11.0049" gradientUnits="userSpaceOnUse">
<stop offset="0.15625" stop-color="#0768B5"/>
<stop offset="0.572917" stop-color="#6FBAF7"/>
<stop offset="0.734375" stop-color="#B7D6EE"/>
<stop offset="1" stop-color="#86ABE2"/>
</linearGradient>
</defs>
</svg>
