<svg width="35" height="35" viewBox="0 0 35 35" fill="none" xmlns="http://www.w3.org/2000/svg">
<path d="M25.7498 21.6242L23.6877 19.5621L25.7498 17.5C26.2915 16.9584 26.7212 16.3153 27.0143 15.6075C27.3075 14.8998 27.4584 14.1412 27.4584 13.3752C27.4584 12.6091 27.3075 11.8505 27.0143 11.1428C26.7212 10.435 26.2915 9.79194 25.7498 9.25025C25.2081 8.70857 24.565 8.27887 23.8573 7.98571C23.1495 7.69255 22.3909 7.54167 21.6249 7.54167C20.8588 7.54167 20.1003 7.69255 19.3925 7.98571C18.6848 8.27887 18.0417 8.70857 17.5 9.25025L15.4379 11.3123L13.3758 9.25025L15.4379 7.18817C17.0834 5.5693 19.3018 4.66621 21.6101 4.67561C23.9184 4.68501 26.1295 5.60614 27.7617 7.23835C29.3939 8.87057 30.315 11.0816 30.3244 13.3899C30.3338 15.6982 29.4307 17.9167 27.8119 19.5621L25.7498 21.6242ZM21.6242 25.7498L19.5621 27.8119C18.752 28.6353 17.7869 29.2901 16.7225 29.7387C15.6581 30.1872 14.5154 30.4206 13.3603 30.4253C12.2053 30.43 11.0607 30.2059 9.99269 29.7661C8.92466 29.3262 7.95427 28.6793 7.13752 27.8625C6.32077 27.0458 5.67381 26.0754 5.23396 25.0073C4.79411 23.9393 4.57008 22.7948 4.57478 21.6397C4.57948 20.4846 4.81283 19.342 5.26136 18.2775C5.7099 17.2131 6.36474 16.248 7.18811 15.438L9.2502 13.3759L11.3123 15.438L9.2502 17.5C8.70851 18.0417 8.27882 18.6848 7.98566 19.3926C7.6925 20.1003 7.54161 20.8589 7.54161 21.6249C7.54161 22.391 7.6925 23.1496 7.98566 23.8573C8.27882 24.5651 8.70851 25.2081 9.2502 25.7498C9.79189 26.2915 10.435 26.7212 11.1427 27.0144C11.8505 27.3075 12.609 27.4584 13.3751 27.4584C14.1412 27.4584 14.8997 27.3075 15.6075 27.0144C16.3152 26.7212 16.9583 26.2915 17.5 25.7498L19.5621 23.6878L21.6242 25.7498ZM21.6242 11.3123L23.6877 13.3759L13.3758 23.6863L11.3123 21.6242L21.6242 11.3138V11.3123Z" fill="#0768B5"/>
</svg>
