<svg width="11" height="11" viewBox="0 0 11 11" fill="none" xmlns="http://www.w3.org/2000/svg">
<path d="M5.50008 10.0833C2.96871 10.0833 0.916748 8.03133 0.916748 5.49996C0.916748 2.96858 2.96871 0.916626 5.50008 0.916626C8.03146 0.916626 10.0834 2.96858 10.0834 5.49996C10.0834 8.03133 8.03146 10.0833 5.50008 10.0833ZM5.50008 9.16663C6.47254 9.16663 7.40517 8.78032 8.09281 8.09268C8.78044 7.40505 9.16675 6.47242 9.16675 5.49996C9.16675 4.5275 8.78044 3.59487 8.09281 2.90723C7.40517 2.2196 6.47254 1.83329 5.50008 1.83329C4.52762 1.83329 3.59499 2.2196 2.90736 2.90723C2.21972 3.59487 1.83341 4.5275 1.83341 5.49996C1.83341 6.47242 2.21972 7.40505 2.90736 8.09268C3.59499 8.78032 4.52762 9.16663 5.50008 9.16663ZM5.95842 5.49996H7.79175V6.41663H5.04175V3.20829H5.95842V5.49996Z" fill="#C6C6C6"/>
</svg>
