<svg width="11" height="11" viewBox="0 0 11 11" fill="none" xmlns="http://www.w3.org/2000/svg">
<path d="M2.92509 2.73537C3.65555 2.15011 4.564 1.83188 5.5 1.83337C6.47396 1.83337 7.36909 2.17071 8.07492 2.73537L8.74088 2.06942L9.38896 2.7175L8.723 3.38346C9.20778 3.99036 9.51136 4.7218 9.59879 5.49362C9.68622 6.26543 9.55395 7.04625 9.21721 7.74621C8.88047 8.44618 8.35294 9.03684 7.69533 9.45023C7.03772 9.86361 6.27675 10.0829 5.5 10.0829C4.72325 10.0829 3.96228 9.86361 3.30467 9.45023C2.64706 9.03684 2.11953 8.44618 1.78279 7.74621C1.44605 7.04625 1.31379 6.26543 1.40122 5.49362C1.48865 4.7218 1.79222 3.99036 2.277 3.38346L1.61104 2.71796L2.25913 2.06987L2.92509 2.73583V2.73537ZM5.95834 5.50004V3.43525L3.66667 6.41671H5.04167V8.47921L7.33334 5.50004H5.95834ZM3.66667 0.458374H7.33334V1.37504H3.66667V0.458374Z" fill="#999999"/>
</svg>
